{"title":"BrooklynÃ‚Â´s Finest.2009.SWESUB.x264.AAC(5.1).mp4-Zen_Bud","uid":5656050,"size":1688790887,"categoryP":"video","categoryS":"movies","magnet":"?xt=urn:btih:b4704e41262497a95e78213f67f855c29483f63b&amp;dn=Brooklyn%C3%82%C2%B4s+Finest.2009.SWESUB.x264.AAC%285.1%29.mp4-Zen_Bud&amp;tr=udp%3A%2F%2Ftracker.openbittorrent.com%3A80&amp;tr=udp%3A%2F%2Fopen.demonii.com%3A1337&amp;tr=udp%3A%2F%2Ftracker.coppersurfer.tk%3A6969&amp;tr=udp%3A%2F%2Fexodus.desync.com%3A6969","seeders":0,"leechers":1,"uploader":"Zen_Bud","files":-1,"time":1277803681,"description":"General\nComplete name                    : Brooklyn's Finest.mp4\nFormat                           : MPEG-4\nCodec ID                         : mp42\nFile size                        : 1.57 GiB\nDuration                         : 2h 12mn\nOverall bit rate                 : 1 698 Kbps\nWriting application              : HandBrake \n\nVideo\nFormat                           : AVC\nDuration                         : 2h 12mn\nBit rate                         : 1 500 Kbps\nWidth                            : 720 pixels\nHeight                           : 356 pixels\nDisplay aspect ratio             : 2.35:1\nStream size                      : 1.39 GiB (88%)\nWriting library                  : x264 core 65\n\nAudio\n\nFormat                           : AAC\nDuration                         : 2h 12mn\nMaximum bit rate                 : 245 Kbps\nChannel(s)                       : 6 channels\nChannel positions                : Front: L C R, Side: L R, LFE\nSampling rate                    : 48.0 KHz\nStream size                      : 183 MiB (11%)\nLanguage                         : English\n\n\n\n\n\n","torrent":{"xt":"urn:btih:b4704e41262497a95e78213f67f855c29483f63b","amp;dn":"Brooklyn%C3%82%C2%B4s+Finest.2009.SWESUB.x264.AAC%285.1%29.mp4-Zen_Bud","amp;tr":["udp%3A%2F%2Ftracker.openbittorrent.com%3A80","udp%3A%2F%2Fopen.demonii.com%3A1337","udp%3A%2F%2Ftracker.coppersurfer.tk%3A6969","udp%3A%2F%2Fexodus.desync.com%3A6969"],"infoHash":"b4704e41262497a95e78213f67f855c29483f63b","infoHashBuffer":{"type":"Buffer","data":[180,112,78,65,38,36,151,169,94,120,33,63,103,248,85,194,148,131,246,59]},"announce":[],"urlList":[]}}